<svg width="100" height="100" viewBox="0 0 100 100" fill="none" xmlns="http://www.w3.org/2000/svg">
<rect y="100" width="20" height="1.90495" transform="rotate(-90 0 100)" fill="#242424"/>
<rect x="20" y="100" width="19.0496" height="2" transform="rotate(-180 20 100)" fill="#242424"/>
<path d="M0 0L100 1.01782e-08L100 0.999999L0 0.999999L0 0Z" fill="#242424" fill-opacity="0.3"/>
<path d="M100 100L5.96046e-08 100L8.68081e-08 99L100 99L100 100Z" fill="#242424" fill-opacity="0.3"/>
<rect x="99" width="0.997144" height="99.9999" fill="#242424" fill-opacity="0.3"/>
<rect width="0.997144" height="99.9999" fill="#242424" fill-opacity="0.3"/>
<rect x="100" width="20" height="1.90496" transform="rotate(90 100 0)" fill="#242424"/>
<rect x="80" width="19.0496" height="2" fill="#242424"/>
<rect width="20" height="1.90457" fill="#242424"/>
<rect y="20" width="19.0457" height="2" transform="rotate(-90 0 20)" fill="#242424"/>
<rect x="100" y="100" width="20" height="1.90456" transform="rotate(-180 100 100)" fill="#242424"/>
<rect x="100" y="80" width="19.0457" height="2" transform="rotate(90 100 80)" fill="#242424"/>
</svg>
