<svg width="40" height="40" viewBox="0 0 40 40" fill="none" xmlns="http://www.w3.org/2000/svg">
<g clip-path="url(#clip0_1524_2907)">
<path fill-rule="evenodd" clip-rule="evenodd" d="M30.523 32.2675L28.7076 30.6575L26.7892 28.9464L27.583 31.6063H10.5741C8.87831 31.6063 7.49756 30.2838 7.49756 28.645V9.21003C7.49756 7.57128 8.87831 6.24878 10.5741 6.24878H30.6732C32.3689 6.24878 33.7486 7.57128 33.7486 9.21003V34.9988L30.523 32.2675ZM27.3132 14.4564C25.1533 12.9049 23.0985 12.9475 23.0985 12.9475L22.8885 13.1775C25.4389 13.925 26.6233 15.0026 26.6233 15.0026C25.063 14.1838 23.5332 13.7802 22.1083 13.6237C21.0289 13.5087 19.9936 13.5374 19.0791 13.6514C18.9877 13.6514 18.9142 13.6663 18.8239 13.6801C18.2989 13.7227 17.0232 13.9101 15.4177 14.5863C14.8633 14.8301 14.5336 15.0026 14.5336 15.0026C14.5336 15.0026 15.7789 13.8665 18.4795 13.12L18.3294 12.9475C18.3294 12.9475 16.2735 12.9049 14.1136 14.4564C14.1136 14.4564 11.9538 18.2088 11.9538 22.8375C11.9538 22.8375 13.2127 24.9214 16.5286 25.0225C16.5286 25.0225 17.0841 24.3751 17.5335 23.8289C15.6288 23.2826 14.9085 22.1337 14.9085 22.1337C14.9085 22.1337 15.0586 22.2338 15.3285 22.3775C15.3442 22.3924 15.3589 22.4052 15.3883 22.4201C15.4335 22.4499 15.4786 22.4627 15.5238 22.4925C15.8986 22.6938 16.2735 22.8514 16.6179 22.9813C17.2342 23.2102 17.9692 23.4413 18.8239 23.5989C19.9485 23.8012 21.2683 23.8715 22.7089 23.6138C23.4135 23.4988 24.1338 23.2975 24.8835 22.9951C25.4085 22.8088 25.9933 22.5351 26.6086 22.1465C26.6086 22.1465 25.8589 23.3263 23.8933 23.8576C24.3438 24.4039 24.8835 25.0225 24.8835 25.0225C28.1994 24.9214 29.473 22.8375 29.473 22.8375C29.473 18.2088 27.3132 14.4564 27.3132 14.4564ZM23.3841 21.5012C22.543 21.5012 21.8532 20.7814 21.8532 19.905C21.8532 19.0276 22.5283 18.3089 23.3841 18.3089C24.2388 18.3089 24.9129 19.0276 24.9129 19.905C24.9129 20.7814 24.2388 21.5012 23.3841 21.5012ZM17.9094 21.5012C17.0683 21.5012 16.3785 20.7814 16.3785 19.905C16.3785 19.0276 17.0536 18.3089 17.9094 18.3089C18.763 18.3089 19.4529 19.0276 19.4382 19.905C19.4382 20.7814 18.763 21.5012 17.9094 21.5012Z" fill="#00F0FF"/>
</g>
<defs>
<clipPath id="clip0_1524_2907">
<rect width="26.25" height="28.75" fill="white" transform="translate(7.5 6.25)"/>
</clipPath>
</defs>
</svg>
