<svg width="40" height="40" viewBox="0 0 40 40" fill="none" xmlns="http://www.w3.org/2000/svg">
<g clip-path="url(#clip0_1524_2904)">
<path fill-rule="evenodd" clip-rule="evenodd" d="M20 5C28.2843 5 35 11.7157 35 20C35 27.4871 29.5147 33.6925 22.3438 34.8178V24.3359H25.8389L26.5039 20H22.3438V17.1863C22.3438 17.038 22.3528 16.8902 22.3724 16.7451C22.5091 15.7291 23.1579 14.8438 24.7883 14.8438H26.6797V11.1523C26.6797 11.1523 26.5724 11.134 26.3858 11.1066C25.8261 11.0242 24.5529 10.8594 23.322 10.8594C19.8957 10.8594 17.6562 12.9359 17.6562 16.6953V20H13.8477V24.3359H17.6562V34.8178C10.4853 33.6925 5 27.4868 5 20C5 11.7157 11.7157 5 20 5Z" fill="#00F0FF"/>
</g>
<defs>
<clipPath id="clip0_1524_2904">
<rect width="30" height="30" fill="white" transform="translate(5 5)"/>
</clipPath>
</defs>
</svg>
