<svg width="40" height="40" viewBox="0 0 40 40" fill="none" xmlns="http://www.w3.org/2000/svg">
<g clip-path="url(#clip0_1524_2908)">
<path fill-rule="evenodd" clip-rule="evenodd" d="M33.6686 25.6695C33.6033 27.1304 33.3672 28.1285 33.0292 29.005C32.3131 30.8521 30.8521 32.3142 29.0039 33.028C28.1331 33.3672 27.1282 33.6044 25.6672 33.6674C24.2006 33.7327 23.7331 33.7476 19.9988 33.7476C16.2645 33.7476 15.797 33.7327 14.3303 33.6674C12.8683 33.6044 11.8691 33.3672 10.9925 33.028C10.0793 32.6854 9.24628 32.1423 8.55878 31.4434C7.86097 30.757 7.31784 29.9297 6.96951 29.005C6.63149 28.1342 6.3943 27.1304 6.33013 25.6695C6.26482 24.2028 6.24878 23.7353 6.24878 20.0011C6.24878 16.2679 6.26482 15.8004 6.33472 14.328C6.39888 12.8671 6.63607 11.8679 6.97409 10.9925C7.31784 10.0793 7.86097 9.24628 8.55878 8.55878C9.24628 7.85409 10.0747 7.3167 10.9983 6.96836C11.8691 6.63034 12.874 6.3943 14.3361 6.32899C15.8027 6.26482 16.2691 6.24878 20.0045 6.24878C23.7388 6.24878 24.2063 6.26482 25.6787 6.33472C27.1396 6.39888 28.1388 6.63493 29.0153 6.97409C29.9286 7.3167 30.7604 7.85982 31.4491 8.55878C32.1538 9.24628 32.6912 10.0736 33.0395 10.9971C33.3775 11.8679 33.6147 12.8728 33.6789 14.3338C33.7442 15.8004 33.7488 16.2679 33.7488 20.0011C33.7488 23.7353 33.7327 24.2028 33.6686 25.6695ZM31.2016 14.4575C31.1432 13.1192 30.9174 12.3893 30.7284 11.9058C30.5084 11.3088 30.1589 10.7725 29.7028 10.3257C29.2617 9.86961 28.7186 9.52013 28.1227 9.30013C27.6392 9.11107 26.9139 8.88649 25.571 8.82805C24.1249 8.76274 23.6907 8.7467 20.0148 8.7467C16.3447 8.7467 15.9093 8.76274 14.4587 8.82805C13.1203 8.88649 12.3904 9.11107 11.9058 9.30013C11.3099 9.52013 10.7725 9.86961 10.3279 10.3257C9.86503 10.7657 9.51555 11.3088 9.29555 11.9058C9.10763 12.3893 8.88076 13.1146 8.82232 14.4575C8.75815 15.9024 8.74211 16.3436 8.74211 20.0125C8.74211 23.6815 8.75815 24.1169 8.82232 25.5664C8.88076 26.9047 9.10763 27.6358 9.29555 28.1193C9.51555 28.7151 9.86503 29.2525 10.3211 29.6994C10.7611 30.1554 11.3042 30.5038 11.9012 30.7238C12.3847 30.9128 13.11 31.1374 14.4529 31.197C15.899 31.2612 16.339 31.2772 20.0091 31.2772C23.6792 31.2772 24.1146 31.2612 25.5652 31.197C26.9036 31.1374 27.6335 30.9128 28.117 30.7238C29.3155 30.262 30.2666 29.311 30.7284 28.1136C30.9174 27.63 31.1432 26.9047 31.2016 25.5607C31.2658 24.1112 31.2829 23.6815 31.2829 20.0125C31.2829 16.3436 31.2658 15.9082 31.2016 14.4575ZM27.3493 14.3074C26.4384 14.3074 25.6993 13.5684 25.6993 12.6574C25.6993 11.7465 26.4384 11.0086 27.3493 11.0086C28.2602 11.0086 28.9982 11.7465 28.9982 12.6574C28.9982 13.5684 28.2602 14.3074 27.3493 14.3074ZM20.0045 27.0663C16.1029 27.0663 12.9382 23.9015 12.9382 20.0011C12.9382 16.1007 16.1029 12.937 20.0045 12.937C23.9049 12.937 27.0697 16.1007 27.0697 20.0011C27.0697 23.9015 23.9049 27.0663 20.0045 27.0663ZM20.0045 15.4189C17.4734 15.4189 15.42 17.4711 15.42 20.0011C15.42 22.5311 17.4734 24.5844 20.0045 24.5844C22.5345 24.5844 24.5878 22.5311 24.5878 20.0011C24.5878 17.4711 22.5345 15.4189 20.0045 15.4189Z" fill="#00F0FF"/>
</g>
<defs>
<clipPath id="clip0_1524_2908">
<rect width="27.5" height="27.5" fill="white" transform="translate(6.25 6.25)"/>
</clipPath>
</defs>
</svg>
