<svg width="2798" height="42" viewBox="0 0 2798 42" fill="none" xmlns="http://www.w3.org/2000/svg">
<g clip-path="url(#clip0_1092_16896)">
<path d="M1282.55 4.84053L1285.98 8.25623L1289.43 4.84053H1282.55ZM1526.52 12.7064H1520.93L1520.96 12.7259H1526.49L1526.52 12.7064ZM1912.79 12.5112L1906.38 6.10922H1895.54L1882.16 20.0648L1882.14 20.0453V20.0648L1874.43 12.7259H1526.48L1523.71 15.478L1528.34 20.0648H1519.1L1523.71 15.478L1520.94 12.7259H1452.44L1448.51 8.80274L1440.75 1.08326L1435.59 6.22633L1409.39 6.10922H1405.19L1394.58 16.6686H1366.39L1360.31 10.6277L1298.06 10.6667L1293.23 15.478L1285.98 8.25623L1283.56 10.6667L1145.1 10.6277L1134.4 0L1114.24 20.0648L1106.65 12.5112H1103.43L1101.67 14.2581L1104.46 17.0395H1098.88L1101.66 14.2581L1099.94 12.5405L1043 12.5015V46.8341H2560V12.5015H1912.79V12.5112ZM1409.31 14.6192H1407.86V13.1748H1409.31V14.6192ZM1409.31 11.7207H1407.86V10.2764H1409.31V11.7207ZM1420.57 14.6192H1419.13V10.2764H1420.57V14.6192ZM1426.14 11.7207H1424.69V10.2764H1426.14V11.7207ZM1828.89 20.055H1824.53V15.7122H1828.89V20.055ZM1843.41 20.055H1841.96V15.7122H1843.41V20.055ZM1853.58 20.055H1852.13V15.7122H1853.58V20.055ZM1855.78 20.055H1854.32V15.7122H1855.78V20.055Z" fill="#FCEE0A"/>
<path d="M933.745 41.9414L937.182 45.3571L940.63 41.9414H933.755H933.745Z" fill="#FCEE0A"/>
<path d="M599 46.0665H1043.12V36.7757L1043.23 15.8912V11.8021L949.552 11.8412L944.72 14.7006L937.491 9.44041L937.481 9.43065L935.056 11.8412L686.603 11.8021L679.257 5H669.927L655.756 19.2874L648.164 11.7338H644.943L643.185 13.4807L645.974 16.262H640.396L643.175 13.4807L641.456 11.7631L615.156 11.724L599 46.0567V46.0665Z" fill="#FCEE0A"/>
<path d="M599 46.0665H1043.12V36.7757L1043.23 15.8912V11.8021L949.552 11.8412L944.72 14.7006L937.491 9.44041L937.481 9.43065L935.056 11.8412L686.603 11.8021L679.257 5H669.927L655.756 19.2874L648.164 11.7338H644.943L643.185 13.4807L645.974 16.262H640.396L643.175 13.4807L641.456 11.7631L615.156 11.724L599 46.0567V46.0665Z" fill="#FCEE0A"/>
<mask id="mask0_1092_16896" style="mask-type:luminance" maskUnits="userSpaceOnUse" x="320" y="12" width="437" height="185">
<path d="M336.106 12L320 46.3131H675.492L691.608 12H336.106Z" fill="white"/>
<path d="M401.115 162.187L385.008 196.5H740.5L756.616 162.187H401.115Z" fill="white"/>
</mask>
<g mask="url(#mask0_1092_16896)">
<path d="M607.109 7.28745L588.188 47.5898L594.204 50.379L613.125 10.0766L607.109 7.28745Z" fill="#FCEE0A"/>
<path d="M597.403 7.55919L578.648 47.5078L584.318 50.136L603.073 10.1874L597.403 7.55919Z" fill="#FCEE0A"/>
<path d="M587.651 7.79965L569.062 47.3945L574.376 49.8577L592.965 10.2628L587.651 7.79965Z" fill="#FCEE0A"/>
<path d="M564.426 49.4059L559.574 47.4053L578.165 7.8125L583.007 9.81312L564.426 49.4059Z" fill="#FCEE0A"/>
<path d="M568.198 8.31476L549.938 47.2109L554.539 49.344L572.8 10.4479L568.198 8.31476Z" fill="#FCEE0A"/>
<path d="M558.494 8.58259L540.399 47.125L544.654 49.0972L562.749 10.5548L558.494 8.58259Z" fill="#FCEE0A"/>
<path d="M548.739 8.8434L530.817 47.0352L534.716 48.8416L552.638 10.6499L548.739 8.8434Z" fill="#FCEE0A"/>
<path d="M539.042 9.10651L521.279 46.9414L524.822 48.5835L542.584 10.7486L539.042 9.10651Z" fill="#FCEE0A"/>
<path d="M529.303 9.34987L511.702 46.8398L514.888 48.3169L532.489 10.827L529.303 9.34987Z" fill="#FCEE0A"/>
<path d="M519.601 9.62071L502.16 46.7539L504.999 48.0706L522.44 10.9374L519.601 9.62071Z" fill="#FCEE0A"/>
<path d="M509.856 9.86989L492.588 46.6523L495.071 47.8035L512.34 11.021L509.856 9.86989Z" fill="#FCEE0A"/>
<path d="M500.108 10.1299L483.006 46.5586L485.133 47.5447L502.235 11.116L500.108 10.1299Z" fill="#FCEE0A"/>
<path d="M490.381 10.386L473.447 46.4727L475.219 47.2934L492.153 11.2067L490.381 10.386Z" fill="#FCEE0A"/>
<path d="M480.675 10.6528L463.9 46.3828L465.324 47.043L482.099 11.313L480.675 10.6528Z" fill="#FCEE0A"/>
<path d="M470.933 10.9032L454.337 46.2852L455.405 46.7799L472.001 11.3979L470.933 10.9032Z" fill="#FCEE0A"/>
<path d="M461.236 11.1725L444.77 46.1836L445.481 46.5142L461.948 11.5031L461.236 11.1725Z" fill="#FCEE0A"/>
<path d="M435.564 46.262L435.21 46.0961L435.289 45.9107L451.483 11.4219L451.847 11.5878L451.758 11.7634L435.564 46.262Z" fill="#FCEE0A"/>
<path d="M425.654 45.9987H425.645L441.761 11.6758V11.6855L425.654 45.9987Z" fill="#FCEE0A"/>
<path d="M607.109 7.28745L588.188 47.5898L594.204 50.379L613.125 10.0766L607.109 7.28745Z" fill="#FCEE0A"/>
<path d="M597.403 7.55919L578.648 47.5078L584.318 50.136L603.073 10.1874L597.403 7.55919Z" fill="#FCEE0A"/>
<path d="M587.651 7.79965L569.062 47.3945L574.376 49.8577L592.965 10.2628L587.651 7.79965Z" fill="#FCEE0A"/>
<path d="M564.426 49.4059L559.574 47.4053L578.165 7.8125L583.007 9.81312L564.426 49.4059Z" fill="#FCEE0A"/>
<path d="M568.198 8.31476L549.938 47.2109L554.539 49.344L572.8 10.4479L568.198 8.31476Z" fill="#FCEE0A"/>
<path d="M558.494 8.58259L540.399 47.125L544.654 49.0972L562.749 10.5548L558.494 8.58259Z" fill="#FCEE0A"/>
<path d="M548.739 8.8434L530.817 47.0352L534.716 48.8416L552.638 10.6499L548.739 8.8434Z" fill="#FCEE0A"/>
<path d="M539.042 9.10651L521.279 46.9414L524.822 48.5835L542.584 10.7486L539.042 9.10651Z" fill="#FCEE0A"/>
<path d="M529.303 9.34987L511.702 46.8398L514.888 48.3169L532.489 10.827L529.303 9.34987Z" fill="#FCEE0A"/>
<path d="M519.601 9.62071L502.16 46.7539L504.999 48.0706L522.44 10.9374L519.601 9.62071Z" fill="#FCEE0A"/>
<path d="M509.856 9.86989L492.588 46.6523L495.071 47.8035L512.34 11.021L509.856 9.86989Z" fill="#FCEE0A"/>
<path d="M500.108 10.1299L483.006 46.5586L485.133 47.5447L502.235 11.116L500.108 10.1299Z" fill="#FCEE0A"/>
<path d="M490.381 10.386L473.447 46.4727L475.219 47.2934L492.153 11.2067L490.381 10.386Z" fill="#FCEE0A"/>
<path d="M480.675 10.6528L463.9 46.3828L465.324 47.043L482.099 11.313L480.675 10.6528Z" fill="#FCEE0A"/>
<path d="M470.933 10.9032L454.337 46.2852L455.405 46.7799L472.001 11.3979L470.933 10.9032Z" fill="#FCEE0A"/>
<path d="M461.236 11.1725L444.77 46.1836L445.481 46.5142L461.948 11.5031L461.236 11.1725Z" fill="#FCEE0A"/>
<path d="M435.564 46.262L435.21 46.0961L435.289 45.9107L451.483 11.4219L451.847 11.5878L451.758 11.7634L435.564 46.262Z" fill="#FCEE0A"/>
<path d="M425.654 45.9987H425.645L441.761 11.6758V11.6855L425.654 45.9987Z" fill="#FCEE0A"/>
</g>
<path d="M1282.55 4.84053L1285.98 8.25623L1289.43 4.84053H1282.55ZM1526.52 12.7064H1520.93L1520.96 12.7259H1526.49L1526.52 12.7064ZM1912.79 12.5112L1906.38 6.10922H1895.54L1882.16 20.0648L1882.14 20.0453V20.0648L1874.43 12.7259H1526.48L1523.71 15.478L1528.34 20.0648H1519.1L1523.71 15.478L1520.94 12.7259H1452.44L1448.51 8.80274L1440.75 1.08326L1435.59 6.22633L1409.39 6.10922H1405.19L1394.58 16.6686H1366.39L1360.31 10.6277L1298.06 10.6667L1293.23 15.478L1285.98 8.25623L1283.56 10.6667L1145.1 10.6277L1134.4 0L1114.24 20.0648L1106.65 12.5112H1103.43L1101.67 14.2581L1104.46 17.0395H1098.88L1101.66 14.2581L1099.94 12.5405L1043 12.5015V46.8341H2560V12.5015H1912.79V12.5112ZM1409.31 14.6192H1407.86V13.1748H1409.31V14.6192ZM1409.31 11.7207H1407.86V10.2764H1409.31V11.7207ZM1420.57 14.6192H1419.13V10.2764H1420.57V14.6192ZM1426.14 11.7207H1424.69V10.2764H1426.14V11.7207ZM1828.89 20.055H1824.53V15.7122H1828.89V20.055ZM1843.41 20.055H1841.96V15.7122H1843.41V20.055ZM1853.58 20.055H1852.13V15.7122H1853.58V20.055ZM1855.78 20.055H1854.32V15.7122H1855.78V20.055Z" fill="#FCEE0A"/>
<path d="M933.745 41.9414L937.182 45.3571L940.63 41.9414H933.755H933.745Z" fill="#FCEE0A"/>
<path d="M599 46.0665H1043.12V36.7757L1043.23 15.8912V11.8021L949.552 11.8412L944.72 14.7006L937.491 9.44041L937.481 9.43065L935.056 11.8412L686.603 11.8021L679.257 5H669.927L655.756 19.2874L648.164 11.7338H644.943L643.185 13.4807L645.974 16.262H640.396L643.175 13.4807L641.456 11.7631L615.156 11.724L599 46.0567V46.0665Z" fill="#FCEE0A"/>
<path d="M599 46.0665H1043.12V36.7757L1043.23 15.8912V11.8021L949.552 11.8412L944.72 14.7006L937.491 9.44041L937.481 9.43065L935.056 11.8412L686.603 11.8021L679.257 5H669.927L655.756 19.2874L648.164 11.7338H644.943L643.185 13.4807L645.974 16.262H640.396L643.175 13.4807L641.456 11.7631L615.156 11.724L599 46.0567V46.0665Z" fill="#FCEE0A"/>
<mask id="mask1_1092_16896" style="mask-type:luminance" maskUnits="userSpaceOnUse" x="320" y="12" width="437" height="185">
<path d="M336.106 12L320 46.3131H675.492L691.608 12H336.106Z" fill="white"/>
<path d="M401.115 162.187L385.008 196.5H740.5L756.616 162.187H401.115Z" fill="white"/>
</mask>
<g mask="url(#mask1_1092_16896)">
<path d="M607.109 7.28745L588.188 47.5898L594.204 50.379L613.125 10.0766L607.109 7.28745Z" fill="#FCEE0A"/>
<path d="M597.403 7.55919L578.648 47.5078L584.318 50.136L603.073 10.1874L597.403 7.55919Z" fill="#FCEE0A"/>
<path d="M587.651 7.79965L569.062 47.3945L574.376 49.8577L592.965 10.2628L587.651 7.79965Z" fill="#FCEE0A"/>
<path d="M564.426 49.4059L559.574 47.4053L578.165 7.8125L583.007 9.81312L564.426 49.4059Z" fill="#FCEE0A"/>
<path d="M568.198 8.31476L549.938 47.2109L554.539 49.344L572.8 10.4479L568.198 8.31476Z" fill="#FCEE0A"/>
<path d="M558.494 8.58259L540.399 47.125L544.654 49.0972L562.749 10.5548L558.494 8.58259Z" fill="#FCEE0A"/>
<path d="M548.739 8.8434L530.817 47.0352L534.716 48.8416L552.638 10.6499L548.739 8.8434Z" fill="#FCEE0A"/>
<path d="M539.042 9.10651L521.279 46.9414L524.822 48.5835L542.584 10.7486L539.042 9.10651Z" fill="#FCEE0A"/>
<path d="M529.303 9.34987L511.702 46.8398L514.888 48.3169L532.489 10.827L529.303 9.34987Z" fill="#FCEE0A"/>
<path d="M519.601 9.62071L502.16 46.7539L504.999 48.0706L522.44 10.9374L519.601 9.62071Z" fill="#FCEE0A"/>
<path d="M509.856 9.86989L492.588 46.6523L495.071 47.8035L512.34 11.021L509.856 9.86989Z" fill="#FCEE0A"/>
<path d="M500.108 10.1299L483.006 46.5586L485.133 47.5447L502.235 11.116L500.108 10.1299Z" fill="#FCEE0A"/>
<path d="M490.381 10.386L473.447 46.4727L475.219 47.2934L492.153 11.2067L490.381 10.386Z" fill="#FCEE0A"/>
<path d="M480.675 10.6528L463.9 46.3828L465.324 47.043L482.099 11.313L480.675 10.6528Z" fill="#FCEE0A"/>
<path d="M470.933 10.9032L454.337 46.2852L455.405 46.7799L472.001 11.3979L470.933 10.9032Z" fill="#FCEE0A"/>
<path d="M461.236 11.1725L444.77 46.1836L445.481 46.5142L461.948 11.5031L461.236 11.1725Z" fill="#FCEE0A"/>
<path d="M435.564 46.262L435.21 46.0961L435.289 45.9107L451.483 11.4219L451.847 11.5878L451.758 11.7634L435.564 46.262Z" fill="#FCEE0A"/>
<path d="M425.654 45.9987H425.645L441.761 11.6758V11.6855L425.654 45.9987Z" fill="#FCEE0A"/>
<path d="M607.109 7.28745L588.188 47.5898L594.204 50.379L613.125 10.0766L607.109 7.28745Z" fill="#FCEE0A"/>
<path d="M597.403 7.55919L578.648 47.5078L584.318 50.136L603.073 10.1874L597.403 7.55919Z" fill="#FCEE0A"/>
<path d="M587.651 7.79965L569.062 47.3945L574.376 49.8577L592.965 10.2628L587.651 7.79965Z" fill="#FCEE0A"/>
<path d="M564.426 49.4059L559.574 47.4053L578.165 7.8125L583.007 9.81312L564.426 49.4059Z" fill="#FCEE0A"/>
<path d="M568.198 8.31476L549.938 47.2109L554.539 49.344L572.8 10.4479L568.198 8.31476Z" fill="#FCEE0A"/>
<path d="M558.494 8.58259L540.399 47.125L544.654 49.0972L562.749 10.5548L558.494 8.58259Z" fill="#FCEE0A"/>
<path d="M548.739 8.8434L530.817 47.0352L534.716 48.8416L552.638 10.6499L548.739 8.8434Z" fill="#FCEE0A"/>
<path d="M539.042 9.10651L521.279 46.9414L524.822 48.5835L542.584 10.7486L539.042 9.10651Z" fill="#FCEE0A"/>
<path d="M529.303 9.34987L511.702 46.8398L514.888 48.3169L532.489 10.827L529.303 9.34987Z" fill="#FCEE0A"/>
<path d="M519.601 9.62071L502.16 46.7539L504.999 48.0706L522.44 10.9374L519.601 9.62071Z" fill="#FCEE0A"/>
<path d="M509.856 9.86989L492.588 46.6523L495.071 47.8035L512.34 11.021L509.856 9.86989Z" fill="#FCEE0A"/>
<path d="M500.108 10.1299L483.006 46.5586L485.133 47.5447L502.235 11.116L500.108 10.1299Z" fill="#FCEE0A"/>
<path d="M490.381 10.386L473.447 46.4727L475.219 47.2934L492.153 11.2067L490.381 10.386Z" fill="#FCEE0A"/>
<path d="M480.675 10.6528L463.9 46.3828L465.324 47.043L482.099 11.313L480.675 10.6528Z" fill="#FCEE0A"/>
<path d="M470.933 10.9032L454.337 46.2852L455.405 46.7799L472.001 11.3979L470.933 10.9032Z" fill="#FCEE0A"/>
<path d="M461.236 11.1725L444.77 46.1836L445.481 46.5142L461.948 11.5031L461.236 11.1725Z" fill="#FCEE0A"/>
<path d="M435.564 46.262L435.21 46.0961L435.289 45.9107L451.483 11.4219L451.847 11.5878L451.758 11.7634L435.564 46.262Z" fill="#FCEE0A"/>
<path d="M425.654 45.9987H425.645L441.761 11.6758V11.6855L425.654 45.9987Z" fill="#FCEE0A"/>
</g>
<g clip-path="url(#clip1_1092_16896)">
<path d="M2578 47.0665H2133.88V37.7757L2133.77 16.8912V12.8021L2227.45 12.8412L2232.28 15.7006L2239.51 10.4404L2239.52 10.4306L2241.94 12.8412L2490.4 12.8021L2497.74 6H2507.07L2521.24 20.2874L2528.84 12.7338H2532.06L2533.82 14.4807L2531.03 17.262H2536.6L2533.83 14.4807L2535.54 12.7631L2561.84 12.724L2578 47.0567V47.0665Z" fill="#FCEE0A"/>
<path d="M2578 47.0665H2133.88V37.7757L2133.77 16.8912V12.8021L2227.45 12.8412L2232.28 15.7006L2239.51 10.4404L2239.52 10.4306L2241.94 12.8412L2490.4 12.8021L2497.74 6H2507.07L2521.24 20.2874L2528.84 12.7338H2532.06L2533.82 14.4807L2531.03 17.262H2536.6L2533.83 14.4807L2535.54 12.7631L2561.84 12.724L2578 47.0567V47.0665Z" fill="#FCEE0A"/>
<mask id="mask2_1092_16896" style="mask-type:luminance" maskUnits="userSpaceOnUse" x="2420" y="13" width="437" height="185">
<path d="M2840.89 13L2857 47.3131H2501.51L2485.39 13H2840.89Z" fill="white"/>
<path d="M2775.89 163.187L2791.99 197.5H2436.5L2420.38 163.187H2775.89Z" fill="white"/>
</mask>
<g mask="url(#mask2_1092_16896)">
<path d="M2569.89 8.28745L2588.81 48.5898L2582.8 51.379L2563.87 11.0766L2569.89 8.28745Z" fill="#FCEE0A"/>
<path d="M2579.6 8.55919L2598.35 48.5078L2592.68 51.136L2573.93 11.1874L2579.6 8.55919Z" fill="#FCEE0A"/>
<path d="M2589.35 8.79965L2607.94 48.3945L2602.62 50.8577L2584.04 11.2628L2589.35 8.79965Z" fill="#FCEE0A"/>
<path d="M2612.57 50.4059L2617.43 48.4053L2598.83 8.8125L2593.99 10.8131L2612.57 50.4059Z" fill="#FCEE0A"/>
<path d="M2608.8 9.31476L2627.06 48.2109L2622.46 50.344L2604.2 11.4479L2608.8 9.31476Z" fill="#FCEE0A"/>
<path d="M2618.51 9.58259L2636.6 48.125L2632.35 50.0972L2614.25 11.5548L2618.51 9.58259Z" fill="#FCEE0A"/>
<path d="M2628.26 9.8434L2646.18 48.0352L2642.28 49.8416L2624.36 11.6499L2628.26 9.8434Z" fill="#FCEE0A"/>
<path d="M2637.96 10.1065L2655.72 47.9414L2652.18 49.5835L2634.42 11.7486L2637.96 10.1065Z" fill="#FCEE0A"/>
<path d="M2647.7 10.3499L2665.3 47.8398L2662.11 49.3169L2644.51 11.827L2647.7 10.3499Z" fill="#FCEE0A"/>
<path d="M2657.4 10.6207L2674.84 47.7539L2672 49.0706L2654.56 11.9374L2657.4 10.6207Z" fill="#FCEE0A"/>
<path d="M2667.14 10.8699L2684.41 47.6523L2681.93 48.8035L2664.66 12.021L2667.14 10.8699Z" fill="#FCEE0A"/>
<path d="M2676.89 11.1299L2693.99 47.5586L2691.87 48.5447L2674.76 12.116L2676.89 11.1299Z" fill="#FCEE0A"/>
<path d="M2686.62 11.386L2703.55 47.4727L2701.78 48.2934L2684.85 12.2067L2686.62 11.386Z" fill="#FCEE0A"/>
<path d="M2696.33 11.6528L2713.1 47.3828L2711.68 48.043L2694.9 12.313L2696.33 11.6528Z" fill="#FCEE0A"/>
<path d="M2706.07 11.9032L2722.66 47.2852L2721.59 47.7799L2705 12.3979L2706.07 11.9032Z" fill="#FCEE0A"/>
<path d="M2715.76 12.1725L2732.23 47.1836L2731.52 47.5142L2715.05 12.5031L2715.76 12.1725Z" fill="#FCEE0A"/>
<path d="M2741.44 47.262L2741.79 47.0961L2741.71 46.9107L2725.52 12.4219L2725.15 12.5878L2725.24 12.7634L2741.44 47.262Z" fill="#FCEE0A"/>
<path d="M2751.35 46.9987H2751.36L2735.24 12.6758V12.6855L2751.35 46.9987Z" fill="#FCEE0A"/>
<path d="M2569.89 8.28745L2588.81 48.5898L2582.8 51.379L2563.87 11.0766L2569.89 8.28745Z" fill="#FCEE0A"/>
<path d="M2579.6 8.55919L2598.35 48.5078L2592.68 51.136L2573.93 11.1874L2579.6 8.55919Z" fill="#FCEE0A"/>
<path d="M2589.35 8.79965L2607.94 48.3945L2602.62 50.8577L2584.04 11.2628L2589.35 8.79965Z" fill="#FCEE0A"/>
<path d="M2612.57 50.4059L2617.43 48.4053L2598.83 8.8125L2593.99 10.8131L2612.57 50.4059Z" fill="#FCEE0A"/>
<path d="M2608.8 9.31476L2627.06 48.2109L2622.46 50.344L2604.2 11.4479L2608.8 9.31476Z" fill="#FCEE0A"/>
<path d="M2618.51 9.58259L2636.6 48.125L2632.35 50.0972L2614.25 11.5548L2618.51 9.58259Z" fill="#FCEE0A"/>
<path d="M2628.26 9.8434L2646.18 48.0352L2642.28 49.8416L2624.36 11.6499L2628.26 9.8434Z" fill="#FCEE0A"/>
<path d="M2637.96 10.1065L2655.72 47.9414L2652.18 49.5835L2634.42 11.7486L2637.96 10.1065Z" fill="#FCEE0A"/>
<path d="M2647.7 10.3499L2665.3 47.8398L2662.11 49.3169L2644.51 11.827L2647.7 10.3499Z" fill="#FCEE0A"/>
<path d="M2657.4 10.6207L2674.84 47.7539L2672 49.0706L2654.56 11.9374L2657.4 10.6207Z" fill="#FCEE0A"/>
<path d="M2667.14 10.8699L2684.41 47.6523L2681.93 48.8035L2664.66 12.021L2667.14 10.8699Z" fill="#FCEE0A"/>
<path d="M2676.89 11.1299L2693.99 47.5586L2691.87 48.5447L2674.76 12.116L2676.89 11.1299Z" fill="#FCEE0A"/>
<path d="M2686.62 11.386L2703.55 47.4727L2701.78 48.2934L2684.85 12.2067L2686.62 11.386Z" fill="#FCEE0A"/>
<path d="M2696.33 11.6528L2713.1 47.3828L2711.68 48.043L2694.9 12.313L2696.33 11.6528Z" fill="#FCEE0A"/>
<path d="M2706.07 11.9032L2722.66 47.2852L2721.59 47.7799L2705 12.3979L2706.07 11.9032Z" fill="#FCEE0A"/>
<path d="M2715.76 12.1725L2732.23 47.1836L2731.52 47.5142L2715.05 12.5031L2715.76 12.1725Z" fill="#FCEE0A"/>
<path d="M2741.44 47.262L2741.79 47.0961L2741.71 46.9107L2725.52 12.4219L2725.15 12.5878L2725.24 12.7634L2741.44 47.262Z" fill="#FCEE0A"/>
<path d="M2751.35 46.9987H2751.36L2735.24 12.6758V12.6855L2751.35 46.9987Z" fill="#FCEE0A"/>
</g>
<path d="M2578 47.0665H2133.88V37.7757L2133.77 16.8912V12.8021L2227.45 12.8412L2232.28 15.7006L2239.51 10.4404L2239.52 10.4306L2241.94 12.8412L2490.4 12.8021L2497.74 6H2507.07L2521.24 20.2874L2528.84 12.7338H2532.06L2533.82 14.4807L2531.03 17.262H2536.6L2533.83 14.4807L2535.54 12.7631L2561.84 12.724L2578 47.0567V47.0665Z" fill="#FCEE0A"/>
<path d="M2578 47.0665H2133.88V37.7757L2133.77 16.8912V12.8021L2227.45 12.8412L2232.28 15.7006L2239.51 10.4404L2239.52 10.4306L2241.94 12.8412L2490.4 12.8021L2497.74 6H2507.07L2521.24 20.2874L2528.84 12.7338H2532.06L2533.82 14.4807L2531.03 17.262H2536.6L2533.83 14.4807L2535.54 12.7631L2561.84 12.724L2578 47.0567V47.0665Z" fill="#FCEE0A"/>
<mask id="mask3_1092_16896" style="mask-type:luminance" maskUnits="userSpaceOnUse" x="2420" y="13" width="437" height="185">
<path d="M2840.89 13L2857 47.3131H2501.51L2485.39 13H2840.89Z" fill="white"/>
<path d="M2775.89 163.187L2791.99 197.5H2436.5L2420.38 163.187H2775.89Z" fill="white"/>
</mask>
<g mask="url(#mask3_1092_16896)">
<path d="M2569.89 8.28745L2588.81 48.5898L2582.8 51.379L2563.87 11.0766L2569.89 8.28745Z" fill="#FCEE0A"/>
<path d="M2579.6 8.55919L2598.35 48.5078L2592.68 51.136L2573.93 11.1874L2579.6 8.55919Z" fill="#FCEE0A"/>
<path d="M2589.35 8.79965L2607.94 48.3945L2602.62 50.8577L2584.04 11.2628L2589.35 8.79965Z" fill="#FCEE0A"/>
<path d="M2612.57 50.4059L2617.43 48.4053L2598.83 8.8125L2593.99 10.8131L2612.57 50.4059Z" fill="#FCEE0A"/>
<path d="M2608.8 9.31476L2627.06 48.2109L2622.46 50.344L2604.2 11.4479L2608.8 9.31476Z" fill="#FCEE0A"/>
<path d="M2618.51 9.58259L2636.6 48.125L2632.35 50.0972L2614.25 11.5548L2618.51 9.58259Z" fill="#FCEE0A"/>
<path d="M2628.26 9.8434L2646.18 48.0352L2642.28 49.8416L2624.36 11.6499L2628.26 9.8434Z" fill="#FCEE0A"/>
<path d="M2637.96 10.1065L2655.72 47.9414L2652.18 49.5835L2634.42 11.7486L2637.96 10.1065Z" fill="#FCEE0A"/>
<path d="M2647.7 10.3499L2665.3 47.8398L2662.11 49.3169L2644.51 11.827L2647.7 10.3499Z" fill="#FCEE0A"/>
<path d="M2657.4 10.6207L2674.84 47.7539L2672 49.0706L2654.56 11.9374L2657.4 10.6207Z" fill="#FCEE0A"/>
<path d="M2667.14 10.8699L2684.41 47.6523L2681.93 48.8035L2664.66 12.021L2667.14 10.8699Z" fill="#FCEE0A"/>
<path d="M2676.89 11.1299L2693.99 47.5586L2691.87 48.5447L2674.76 12.116L2676.89 11.1299Z" fill="#FCEE0A"/>
<path d="M2686.62 11.386L2703.55 47.4727L2701.78 48.2934L2684.85 12.2067L2686.62 11.386Z" fill="#FCEE0A"/>
<path d="M2696.33 11.6528L2713.1 47.3828L2711.68 48.043L2694.9 12.313L2696.33 11.6528Z" fill="#FCEE0A"/>
<path d="M2706.07 11.9032L2722.66 47.2852L2721.59 47.7799L2705 12.3979L2706.07 11.9032Z" fill="#FCEE0A"/>
<path d="M2715.76 12.1725L2732.23 47.1836L2731.52 47.5142L2715.05 12.5031L2715.76 12.1725Z" fill="#FCEE0A"/>
<path d="M2741.44 47.262L2741.79 47.0961L2741.71 46.9107L2725.52 12.4219L2725.15 12.5878L2725.24 12.7634L2741.44 47.262Z" fill="#FCEE0A"/>
<path d="M2751.35 46.9987H2751.36L2735.24 12.6758V12.6855L2751.35 46.9987Z" fill="#FCEE0A"/>
<path d="M2569.89 8.28745L2588.81 48.5898L2582.8 51.379L2563.87 11.0766L2569.89 8.28745Z" fill="#FCEE0A"/>
<path d="M2579.6 8.55919L2598.35 48.5078L2592.68 51.136L2573.93 11.1874L2579.6 8.55919Z" fill="#FCEE0A"/>
<path d="M2589.35 8.79965L2607.94 48.3945L2602.62 50.8577L2584.04 11.2628L2589.35 8.79965Z" fill="#FCEE0A"/>
<path d="M2612.57 50.4059L2617.43 48.4053L2598.83 8.8125L2593.99 10.8131L2612.57 50.4059Z" fill="#FCEE0A"/>
<path d="M2608.8 9.31476L2627.06 48.2109L2622.46 50.344L2604.2 11.4479L2608.8 9.31476Z" fill="#FCEE0A"/>
<path d="M2618.51 9.58259L2636.6 48.125L2632.35 50.0972L2614.25 11.5548L2618.51 9.58259Z" fill="#FCEE0A"/>
<path d="M2628.26 9.8434L2646.18 48.0352L2642.28 49.8416L2624.36 11.6499L2628.26 9.8434Z" fill="#FCEE0A"/>
<path d="M2637.96 10.1065L2655.72 47.9414L2652.18 49.5835L2634.42 11.7486L2637.96 10.1065Z" fill="#FCEE0A"/>
<path d="M2647.7 10.3499L2665.3 47.8398L2662.11 49.3169L2644.51 11.827L2647.7 10.3499Z" fill="#FCEE0A"/>
<path d="M2657.4 10.6207L2674.84 47.7539L2672 49.0706L2654.56 11.9374L2657.4 10.6207Z" fill="#FCEE0A"/>
<path d="M2667.14 10.8699L2684.41 47.6523L2681.93 48.8035L2664.66 12.021L2667.14 10.8699Z" fill="#FCEE0A"/>
<path d="M2676.89 11.1299L2693.99 47.5586L2691.87 48.5447L2674.76 12.116L2676.89 11.1299Z" fill="#FCEE0A"/>
<path d="M2686.62 11.386L2703.55 47.4727L2701.78 48.2934L2684.85 12.2067L2686.62 11.386Z" fill="#FCEE0A"/>
<path d="M2696.33 11.6528L2713.1 47.3828L2711.68 48.043L2694.9 12.313L2696.33 11.6528Z" fill="#FCEE0A"/>
<path d="M2706.07 11.9032L2722.66 47.2852L2721.59 47.7799L2705 12.3979L2706.07 11.9032Z" fill="#FCEE0A"/>
<path d="M2715.76 12.1725L2732.23 47.1836L2731.52 47.5142L2715.05 12.5031L2715.76 12.1725Z" fill="#FCEE0A"/>
<path d="M2741.44 47.262L2741.79 47.0961L2741.71 46.9107L2725.52 12.4219L2725.15 12.5878L2725.24 12.7634L2741.44 47.262Z" fill="#FCEE0A"/>
<path d="M2751.35 46.9987H2751.36L2735.24 12.6758V12.6855L2751.35 46.9987Z" fill="#FCEE0A"/>
</g>
</g>
</g>
<defs>
<clipPath id="clip0_1092_16896">
<rect width="2798" height="42" fill="white"/>
</clipPath>
<clipPath id="clip1_1092_16896">
<rect width="239" height="47" fill="white" transform="matrix(-1 0 0 1 2784 1)"/>
</clipPath>
</defs>
</svg>
