<svg width="2798" height="42" viewBox="0 0 2798 42" fill="none" xmlns="http://www.w3.org/2000/svg">
  <g clip-path="url(#clip0_1092_16896)">
    <path d="M1282.55 4.84053L1285.98 8.25623L1289.43 4.84053H1282.55ZM1526.52 12.7064H1520.93L1520.96 12.7259H1526.49L1526.52 12.7064ZM1912.79 12.5112L1906.38 6.10922H1895.54L1882.16 20.0648L1882.14 20.0453V20.0648L1874.43 12.7259H1526.48L1523.71 15.478L1528.34 20.0648H1519.1L1523.71 15.478L1520.94 12.7259H1452.44L1448.51 8.80274L1440.75 1.08326L1435.59 6.22633L1409.39 6.10922H1405.19L1394.58 16.6686H1366.39L1360.31 10.6277L1298.06 10.6667L1293.23 15.478L1285.98 8.25623L1283.56 10.6667L1145.1 10.6277L1134.4 0L1114.24 20.0648L1106.65 12.5112H1103.43L1101.67 14.2581L1104.46 17.0395H1098.88L1101.66 14.2581L1099.94 12.5405L1043 12.5015V46.8341H2560V12.5015H1912.79V12.5112ZM1409.31 14.6192H1407.86V13.1748H1409.31V14.6192ZM1409.31 11.7207H1407.86V10.2764H1409.31V11.7207ZM1420.57 14.6192H1419.13V10.2764H1420.57V14.6192ZM1426.14 11.7207H1424.69V10.2764H1426.14V11.7207ZM1828.89 20.055H1824.53V15.7122H1828.89V20.055ZM1843.41 20.055H1841.96V15.7122H1843.41V20.055ZM1853.58 20.055H1852.13V15.7122H1853.58V20.055ZM1855.78 20.055H1854.32V15.7122H1855.78V20.055Z" fill="#1EAEDB"/>
    <path d="M933.745 41.9414L937.182 45.3571L940.63 41.9414H933.755H933.745Z" fill="#1EAEDB"/>
    <path d="M599 46.0665H1043.12V36.7757L1043.23 15.8912V11.8021L949.552 11.8412L944.72 14.7006L937.491 9.44041L937.481 9.43065L935.056 11.8412L686.603 11.8021L679.257 5H669.927L655.756 19.2874L648.164 11.7338H644.943L643.185 13.4807L645.974 16.262H640.396L643.175 13.4807L641.456 11.7631L615.156 11.724L599 46.0567V46.0665Z" fill="#1EAEDB"/>
    <path d="M599 46.0665H1043.12V36.7757L1043.23 15.8912V11.8021L949.552 11.8412L944.72 14.7006L937.491 9.44041L937.481 9.43065L935.056 11.8412L686.603 11.8021L679.257 5H669.927L655.756 19.2874L648.164 11.7338H644.943L643.185 13.4807L645.974 16.262H640.396L643.175 13.4807L641.456 11.7631L615.156 11.724L599 46.0567V46.0665Z" fill="#1EAEDB"/>
  </g>
  <mask id="mask0_1092_16896" style="mask-type:luminance" maskUnits="userSpaceOnUse" x="320" y="12" width="437" height="185">
    <path d="M336.106 12L320 46.3131H675.492L691.608 12H336.106Z" fill="white"/>
    <path d="M401.115 162.187L385.008 196.5H740.5L756.616 162.187H401.115Z" fill="white"/>
  </mask>
  <g mask="url(#mask0_1092_16896)">
    <path d="M607.109 7.28745L588.188 47.5898L594.204 50.379L613.125 10.0766L607.109 7.28745Z" fill="#1EAEDB"/>
    <path d="M597.403 7.55919L578.648 47.5078L584.318 50.136L603.073 10.1874L597.403 7.55919Z" fill="#1EAEDB"/>
    <path d="M587.651 7.79965L569.062 47.3945L574.376 49.8577L592.965 10.2628L587.651 7.79965Z" fill="#1EAEDB"/>
    <path d="M577.898 8.07062L559.475 47.2812L564.414 49.5602L582.838 10.3497L577.898 8.07062Z" fill="#1EAEDB"/>
    <path d="M568.193 8.33209L549.936 47.1894L554.482 49.2724L572.74 10.4151L568.193 8.33209Z" fill="#1EAEDB"/>
    <path d="M558.452 8.58399L540.36 47.0664L544.51 48.9534L562.602 10.4711L558.452 8.58399Z" fill="#1EAEDB"/>
    <path d="M548.689 8.84546L530.763 46.9434L534.528 48.6345L552.455 10.5471L548.689 8.84546Z" fill="#1EAEDB"/>
    <path d="M538.998 9.10705L521.248 46.8203L524.628 48.3154L542.377 10.6228L538.998 9.10705Z" fill="#1EAEDB"/>
    <path d="M529.246 9.34802L511.661 46.6972L514.645 47.9962L532.23 10.6778L529.246 9.34802Z" fill="#1EAEDB"/>
    <path d="M519.494 9.61998L502.146 46.584L504.743 47.687L522.092 10.7536L519.494 9.61998Z" fill="#1EAEDB"/>
    <path d="M509.744 9.88147L492.579 46.4712L494.78 47.377L512.136 10.8296L509.744 9.88147Z" fill="#1EAEDB"/>
    <path d="M500 10.1429L483.021 46.3481L484.808 47.0571L501.787 10.8855L500 10.1429Z" fill="#1EAEDB"/>
    <path d="M490.3 10.4044L473.472 46.2253L474.865 46.7372L491.693 10.9627L490.3 10.4044Z" fill="#1EAEDB"/>
    <path d="M480.552 10.6659L463.916 46.1121L464.902 46.4171L481.538 11.0386L480.552 10.6659Z" fill="#1EAEDB"/>
    <path d="M470.801 10.9275L454.387 45.9891L454.979 46.0862L471.392 11.1043L470.801 10.9275Z" fill="#1EAEDB"/>
  </g>
</svg>
