<svg width="4244" height="46" viewBox="0 0 4244 46" fill="#1EAEDB" xmlns="http://www.w3.org/2000/svg">
<path d="M43 20.8799L53.02 32.5199L80 32.4799L81.75 30.7199L78.9199 27.8699L84.6099 27.87L81.77 30.7199L83.5596 32.5099L86.8398 32.5099L94.5698 24.77L109 39.41L118.5 39.41L125.98 32.44L378.96 32.4L381.43 34.87L381.44 34.87L381.44 34.86L388.8 29.47L393.72 32.4L466.52 32.43L466.52 32.52L799.87 32.52L806.4 39.06L817.43 39.06L831.06 24.76L831.08 24.78L831.08 24.76L838.93 32.28L1193.21 32.28L1193.18 32.3L1198.87 32.3L1198.84 32.28L1193.22 32.28L1196.04 29.46L1191.33 24.76L1200.73 24.76L1196.04 29.46L1198.86 32.28L1268.61 32.2801L1272.61 36.3001L1280.51 44.2101L1285.77 38.9401L1312.44 39.0601L1316.72 39.0601L1327.52 28.2401L1356.23 28.2401L1362.42 34.4301L1425.81 34.3901L1430.73 29.4601L1438.1 36.8501L1434.59 40.3501L1441.59 40.3501L1438.11 36.8601L1440.58 34.3901L1581.56 34.4301L1592.45 45.3201L1612.97 24.7601L1620.7 32.5001L1623.98 32.5001L1625.77 30.7101L1622.93 27.8601L1628.62 27.8601L1625.79 30.7101L1627.54 32.4701L1685.52 32.5101L1685.52 32.2501L2331.92 32.2501L2338.33 38.6401L2349.17 38.6401L2362.55 24.6801L2362.57 24.7001L2362.57 24.6801L2370.28 32.0201L2718.22 32.0202L2718.19 32.0402L2723.78 32.0402L2723.75 32.0202L2718.23 32.0202L2721 29.2702L2716.37 24.6802L2725.61 24.6802L2721 29.2702L2723.77 32.0202L2792.27 32.0202L2796.2 35.9402L2803.96 43.6602L2809.12 38.5202L2835.32 38.6402L2839.52 38.6402L2850.13 28.0802L2878.32 28.0802L2884.4 34.1202L2946.65 34.0802L2951.48 29.2702L2958.73 36.4902L2961.15 34.0802L3099.61 34.1202L3110.31 44.7502L3130.47 24.6902L3138.06 32.2402L3141.28 32.2402L3143.04 30.4902L3140.25 27.7102L3145.83 27.7102L3143.05 30.4902L3144.77 32.2102L3201.48 32.2502L3201.48 32.9502L3295.16 32.9102L3299.99 30.0502L3307.22 35.3102L3307.23 35.3102L3309.65 32.9102L3558.1 32.9503L3565.45 39.7503L3574.78 39.7503L3588.95 25.4603L3596.54 33.0103L3599.76 33.0103L3601.52 31.2603L3598.73 28.4803L3604.31 28.4803L3601.53 31.2603L3603.25 32.9803L3629.55 33.0203L3643.8 2.74026L3646.57 2.74026L3632.33 33.0703L3639.66 33.0703L3653.9 2.74026L3656.57 2.74026L3642.33 33.0703L3649.23 33.0703L3663.47 2.74026L3666.64 2.74026L3652.4 33.0703L3658.87 33.0703L3673.11 2.74026L3676.8 2.74026L3662.57 33.0703L3668.35 33.0703L3682.59 2.74027L3686.72 2.74027L3672.48 33.0703L3678.08 33.0703L3692.32 2.74027L3696.72 2.74027L3682.48 33.0703L3687.66 33.0703L3701.9 2.74027L3706.78 2.74027L3692.55 33.0703L3697.3 33.0703L3711.53 2.74027L3716.8 2.74027L3702.56 33.0703L3706.87 33.0703L3721.11 2.74027L3726.86 2.74027L3712.62 33.0703L3716.5 33.0703L3730.74 2.74027L3736.86 2.74027L3722.62 33.0703L3726.08 33.0703L3740.32 2.74027L3746.92 2.74027L3732.68 33.0703L3735.7 33.0703L3749.94 2.74027L3756.98 2.74027L3742.74 33.0703L3745.33 33.0703L3759.57 2.74027L3767.01 2.74027L3752.78 33.0703L3754.94 33.0703L3769.17 2.74027L3777.02 2.74027L3762.78 33.0703L3764.51 33.0703L3778.75 2.74027L3787.06 2.74027L3772.83 33.0703L3774.13 33.0703L3788.36 2.74027L3797.1 2.74028L3782.84 33.0703L3783.71 33.0703L3797.97 2.74028L3807.14 2.74028L3792.95 32.9803L3792.9 33.0703L3793.34 33.0703L3807.58 2.74028L3817.17 2.74028L3802.94 33.0503L3817.18 2.74028L4242.71 2.74031L4243.8 0.000312805L3.962e-06 -5.81996e-05L2.13836e-06 20.8599L43 20.8599L43 20.8799ZM2835.4 30.1402L2836.85 30.1402L2836.85 31.5802L2835.4 31.5802L2835.4 30.1402ZM2835.4 33.0402L2836.85 33.0402L2836.85 34.4802L2835.4 34.4802L2835.4 33.0402ZM2824.14 30.1402L2825.58 30.1402L2825.58 34.4802L2824.14 34.4802L2824.14 30.1402ZM2818.57 33.0402L2820.02 33.0402L2820.02 34.4802L2818.57 34.4802L2818.57 33.0402ZM2415.82 24.7002L2420.18 24.7002L2420.18 29.0402L2415.82 29.0402L2415.82 24.7002ZM2401.3 24.7002L2402.75 24.7002L2402.75 29.0402L2401.3 29.0402L2401.3 24.7002ZM2391.13 24.7002L2392.58 24.7002L2392.58 29.0402L2391.13 29.0402L2391.13 24.7002ZM2388.93 24.7002L2390.39 24.7002L2390.39 29.0402L2388.93 29.0402L2388.93 24.7002ZM1312.53 30.3501L1314.01 30.3501L1314.01 31.8301L1312.53 31.8301L1312.53 30.3501ZM1312.53 33.3201L1314.01 33.3201L1314.01 34.8001L1312.53 34.8001L1312.53 33.3201ZM1301.07 30.3501L1302.54 30.3501L1302.54 34.8001L1301.07 34.8001L1301.07 30.3501ZM1295.4 33.3201L1296.87 33.3201L1296.87 34.8001L1295.4 34.8001L1295.4 33.3201ZM885.31 24.78L889.75 24.78L889.75 29.23L885.31 29.23L885.31 24.78ZM870.52 24.78L872 24.78L872 29.23L870.52 29.23L870.52 24.78ZM860.17 24.78L861.64 24.78L861.64 29.23L860.17 29.23L860.17 24.78ZM857.93 24.78L859.41 24.78L859.41 29.23L857.93 29.23L857.93 24.78Z" fill="#1EAEDB"/>
</svg>
