<svg width="40" height="40" viewBox="0 0 40 40" fill="none" xmlns="http://www.w3.org/2000/svg">
<g clip-path="url(#clip0_1524_2905)">
<path fill-rule="evenodd" clip-rule="evenodd" d="M30.64 11.4688C31.8963 10.6451 32.7275 9.52135 33.1363 8.09385C31.9125 8.7851 30.695 9.2601 29.48 9.52135C28.385 8.2676 26.9988 7.63135 25.3413 7.63135C23.7175 7.63135 22.3488 8.2376 21.2275 9.41885C20.115 10.6088 19.5538 12.0551 19.5538 13.7388C19.5538 14.2538 19.615 14.7088 19.735 15.1001C14.95 14.9251 10.9875 12.8076 7.86754 8.7351C7.33879 9.7301 7.07379 10.7476 7.07379 11.7963C7.07379 13.9551 7.92879 15.6638 9.63379 16.9188C8.66129 16.8326 7.80379 16.5713 7.07379 16.1413C7.07379 17.6813 7.49879 18.9688 8.35004 20.1013C9.20379 21.2226 10.3013 21.9388 11.64 22.2426C11.1563 22.3751 10.6438 22.4388 10.1175 22.4388C9.63129 22.4388 9.28879 22.3938 9.08379 22.3013C9.44254 23.5563 10.1175 24.5763 11.0938 25.3551C12.065 26.1363 13.1838 26.5513 14.4413 26.5863C12.3688 28.3201 9.99879 29.1788 7.31879 29.1788C6.66129 29.1788 6.19629 29.1701 5.91504 29.1138C8.55504 30.9426 11.495 31.8488 14.745 31.8488C18.0738 31.8488 21.0138 30.9501 23.575 29.1526C26.1338 27.3638 28.0225 25.1588 29.2363 22.5626C30.4563 19.9651 31.06 17.2676 31.06 14.4463V13.6701C32.2388 12.7251 33.1925 11.6588 33.9225 10.4838C32.865 10.9701 31.7713 11.3001 30.64 11.4688Z" fill="#00F0FF"/>
</g>
<defs>
<clipPath id="clip0_1524_2905">
<rect width="30" height="25" fill="white" transform="translate(5 7.5)"/>
</clipPath>
</defs>
</svg>
